<svg xmlns="http://www.w3.org/2000/svg" viewBox="0 0 100 96" role="img" aria-hidden="true">
  <path fill="#E17726" d="M99.76 0L55.938 32.425l8.149-19.109z"/>
  <path fill="#E27625" d="m2.47.038l35.577 13.28l7.738 19.36zm79.655 68.921l19.368.369l-6.769 22.995l-23.634-6.507zm-62.123 0l10.994 16.857l-23.595 6.508L.674 69.328z"/>
  <path fill="#E27625" d="m44.733 27.747l.792 25.565l-23.686-1.078l6.737-10.164l.086-.098zm12.416-.286l16.316 14.512l.085.098l6.737 10.163l-23.68 1.078zm-25.46 41.572L44.622 79.11l-15.023 7.253zm38.751-.001l2.047 17.331l-14.981-7.254z"/>
  <path fill="#D5BFB2" d="m57.837 78.16l15.202 7.361l-14.141 6.721l.147-4.442zm-13.551.003l-1.16 9.564l.095 4.51l-14.174-6.716z"/>
  <path fill="#233447" d="m39.896 56.648l3.973 8.349l-13.525-3.962zm22.334.001l9.598 4.386l-13.569 3.961z"/>
  <path fill="#CC6228" d="m32.723 68.948l-2.186 17.968l-11.718-17.575zm36.682 0l13.905.393l-11.762 17.576zm11.225-17.73L70.51 61.531l-7.801-3.565l-3.736 7.852l-2.448-13.503zm-59.137 0l24.109 1.097l-2.449 13.503l-3.736-7.851l-7.761 3.564z"/>
  <path fill="#E27525" d="m20.811 49.102l11.448 11.617l.397 11.469zm60.517-.021L69.462 72.208l.446-11.489zm-36.286.728l.461 2.901l1.139 7.225l-.732 22.19l-3.461-17.826l-.001-.184zm12.037-.04l2.601 14.346l-.001.184L56.21 82.17l-.138-4.47l-.541-17.897z"/>
  <path fill="#F5841F" d="m70.926 60.257l-.387 9.965l-12.078 9.41l-2.441-1.725l2.736-14.097zm-39.683.001l12.128 3.553l2.736 14.096l-2.441 1.725l-12.078-9.411z"/>
  <path fill="#C0AC9D" d="m26.736 83.321l15.451 7.321l-.065-3.127l1.293-1.134h15.293l1.339 1.131l-.099 3.124l15.354-7.297l-7.471 6.174l-9.034 6.205H43.291l-9.028-6.231z"/>
  <path fill="#e8eef5" d="m56.73 77.186l2.185 1.543l1.28 10.214l-1.853-1.564H43.791l-1.818 1.596l1.239-10.245l2.185-1.544z"/>
  <path fill="#763E1A" d="m96.867.898l5.26 15.78l-3.285 15.956l2.339 1.805l-3.165 2.415l2.379 1.837l-3.15 2.869l1.934 1.401l-5.133 5.994l-21.052-6.129l-.182-.098l-15.17-12.797zM5.26.898l39.226 29.033l-15.171 12.797l-.182.098l-21.052 6.129l-5.132-5.994l1.932-1.4l-3.149-2.87l2.375-1.835l-3.213-2.422l2.428-1.806L0 16.679z"/>
  <path fill="#F5841F" d="M71.964 41.485L94.27 47.98l7.247 22.334H82.399l-13.174.166l9.58-18.673zm-41.801 0L23.32 51.807l9.582 18.673l-13.167-.166H.65L7.857 47.98zM65.18 13.209L58.94 30.06l-1.324 22.763l-.506 7.135l-.04 18.227H45.057l-.039-18.193l-.508-7.175l-1.325-22.757l-6.238-16.851z"/>
</svg>
